<svg xmlns="http://www.w3.org/2000/svg" xmlns:xlink="http://www.w3.org/1999/xlink" width="1080" zoomAndPan="magnify" viewBox="0 0 810 809.999993" height="1080" preserveAspectRatio="xMidYMid meet" version="1.0"><defs><clipPath id="231e436a33"><path d="M 127.746094 81 L 682.253906 81 L 682.253906 635.511719 L 127.746094 635.511719 Z M 127.746094 81 " clip-rule="nonzero"/></clipPath><clipPath id="508e6e52d9"><path d="M 405 81 C 251.875 81 127.746094 205.132812 127.746094 358.253906 C 127.746094 511.378906 251.875 635.511719 405 635.511719 C 558.125 635.511719 682.253906 511.378906 682.253906 358.253906 C 682.253906 205.132812 558.125 81 405 81 Z M 405 81 " clip-rule="nonzero"/></clipPath><clipPath id="4ef0180baf"><path d="M 87 325 L 264 325 L 264 412.964844 L 87 412.964844 Z M 87 325 " clip-rule="nonzero"/></clipPath><clipPath id="9e6e660dcc"><path d="M 19.15625 304 L 105 304 L 105 405 L 19.15625 405 Z M 19.15625 304 " clip-rule="nonzero"/></clipPath><clipPath id="c381f97e0e"><path d="M 534 350 L 717 350 L 717 419 L 534 419 Z M 534 350 " clip-rule="nonzero"/></clipPath><clipPath id="e78bfc6a2f"><path d="M 526.546875 331.742188 L 766.582031 277.894531 L 790.546875 384.742188 L 550.515625 438.585938 Z M 526.546875 331.742188 " clip-rule="nonzero"/></clipPath><clipPath id="2ff816ce25"><path d="M 766.808594 277.84375 L 526.773438 331.691406 L 550.742188 438.535156 L 790.777344 384.691406 Z M 766.808594 277.84375 " clip-rule="nonzero"/></clipPath><clipPath id="5d1200a599"><path d="M 699 291 L 782 291 L 782 387 L 699 387 Z M 699 291 " clip-rule="nonzero"/></clipPath><clipPath id="3780dcecbe"><path d="M 526.546875 331.742188 L 766.582031 277.894531 L 790.546875 384.742188 L 550.515625 438.585938 Z M 526.546875 331.742188 " clip-rule="nonzero"/></clipPath><clipPath id="54d980474e"><path d="M 766.808594 277.84375 L 526.773438 331.691406 L 550.742188 438.535156 L 790.777344 384.691406 Z M 766.808594 277.84375 " clip-rule="nonzero"/></clipPath><clipPath id="5db1034cce"><path d="M 698 290 L 783 290 L 783 388 L 698 388 Z M 698 290 " clip-rule="nonzero"/></clipPath><clipPath id="06bc13cd56"><path d="M 526.546875 331.742188 L 766.582031 277.894531 L 790.546875 384.742188 L 550.515625 438.585938 Z M 526.546875 331.742188 " clip-rule="nonzero"/></clipPath><clipPath id="bb7dea91c2"><path d="M 766.808594 277.84375 L 526.773438 331.691406 L 550.742188 438.535156 L 790.777344 384.691406 Z M 766.808594 277.84375 " clip-rule="nonzero"/></clipPath><clipPath id="24dfaa8d10"><path d="M 196 132.023438 L 615 132.023438 L 615 404 L 196 404 Z M 196 132.023438 " clip-rule="nonzero"/></clipPath><clipPath id="3714ac0b74"><path d="M 142 490 L 668.601562 490 L 668.601562 504.773438 L 142 504.773438 Z M 142 490 " clip-rule="nonzero"/></clipPath><clipPath id="91994d5f1a"><path d="M 274 200.226562 L 433.304688 200.226562 L 433.304688 352 L 274 352 Z M 274 200.226562 " clip-rule="nonzero"/></clipPath><clipPath id="b70e46b7d8"><path d="M 280.199219 320.25 C 310.574219 290.175781 319.199219 279.675781 328.125 270.523438 C 337.050781 261.449219 346.351562 252.75 355.726562 244.050781 C 365.023438 235.425781 375.824219 225.375 384.074219 218.773438 C 390.074219 213.976562 400.351562 207.375 400.273438 207.148438 C 400.199219 207.074219 394.726562 210.898438 394.5 210.601562 C 394.273438 210.300781 397.199219 206.925781 398.925781 205.5 C 400.648438 204.074219 402.75 202.875 404.851562 202.125 C 406.949219 201.300781 409.273438 200.851562 411.449219 200.773438 C 413.699219 200.699219 416.101562 201 418.199219 201.601562 C 420.375 202.273438 422.476562 203.324219 424.351562 204.601562 C 426.148438 205.875 427.875 207.523438 429.148438 209.324219 C 430.5 211.125 431.550781 213.226562 432.226562 215.398438 C 432.898438 217.5 433.273438 219.824219 433.199219 222.074219 C 433.199219 224.324219 432.75 226.648438 432 228.75 C 431.25 230.851562 430.125 232.949219 428.699219 234.675781 C 427.351562 236.476562 425.550781 238.050781 423.75 239.25 C 421.875 240.523438 419.699219 241.5 417.523438 242.023438 C 415.351562 242.550781 412.949219 242.773438 410.773438 242.625 C 408.523438 242.476562 406.199219 241.949219 404.175781 241.050781 C 402.074219 240.226562 400.050781 238.949219 398.398438 237.449219 C 396.75 236.023438 395.25 234.148438 394.125 232.199219 C 393 230.324219 392.175781 228.074219 391.726562 225.898438 C 391.273438 223.726562 391.199219 221.324219 391.425781 219.074219 C 391.726562 216.898438 392.398438 214.574219 393.375 212.625 C 394.351562 210.601562 395.699219 208.648438 397.273438 207.074219 C 398.851562 205.425781 400.800781 204.074219 402.75 203.023438 C 404.773438 202.050781 407.023438 201.300781 409.199219 201 C 411.449219 200.625 413.773438 200.699219 416.023438 201.074219 C 418.199219 201.523438 420.449219 202.273438 422.398438 203.398438 C 424.351562 204.449219 426.226562 205.949219 427.726562 207.601562 C 429.226562 209.25 430.5 211.199219 431.398438 213.226562 C 432.300781 215.324219 432.898438 217.574219 433.125 219.824219 C 433.351562 222.074219 433.199219 224.398438 432.675781 226.574219 C 432.148438 228.75 431.25 231.074219 430.050781 232.875 C 428.925781 234.523438 428.175781 234.898438 425.773438 237.148438 C 416.550781 245.925781 367.949219 286.726562 354.074219 300.148438 C 348.074219 306.074219 347.25 308.101562 341.773438 313.5 C 332.398438 322.800781 308.476562 345.449219 301.800781 349.648438 C 299.925781 350.851562 299.398438 351 297.75 351.375 C 295.351562 351.824219 291.300781 351.976562 288.898438 351.601562 C 287.25 351.375 286.199219 351 284.699219 350.175781 C 282.675781 348.976562 279.523438 346.351562 277.949219 344.550781 C 276.898438 343.273438 276.375 342.300781 275.773438 340.648438 C 275.023438 338.398438 274.425781 334.351562 274.5 332.023438 C 274.5 330.300781 274.726562 329.25 275.398438 327.675781 C 276.300781 325.425781 280.199219 320.25 280.199219 320.25 " clip-rule="nonzero"/></clipPath><clipPath id="38027c95c6"><path d="M 270.308594 327.132812 L 305.652344 327.132812 L 305.652344 363.292969 L 270.308594 363.292969 Z M 270.308594 327.132812 " clip-rule="nonzero"/></clipPath><clipPath id="c568b045c4"><path d="M 305.550781 339.898438 C 305.550781 351.226562 304.273438 354.148438 302.550781 356.324219 C 300.824219 358.5 298.273438 360.523438 295.726562 361.648438 C 293.175781 362.773438 290.023438 363.375 287.25 363.226562 C 284.476562 363 281.398438 362.101562 279.074219 360.675781 C 276.675781 359.175781 274.425781 356.925781 272.925781 354.523438 C 271.5 352.125 270.523438 349.125 270.375 346.351562 C 270.226562 343.574219 270.824219 340.425781 271.949219 337.875 C 273.074219 335.324219 275.101562 332.773438 277.273438 331.050781 C 279.449219 329.324219 282.375 328.050781 285.148438 327.523438 C 287.851562 327 291.074219 327.226562 293.699219 328.050781 C 296.398438 328.875 301.125 332.550781 301.125 332.550781 " clip-rule="nonzero"/></clipPath><clipPath id="15b9e0c3b0"><path d="M 380 158.410156 L 538.636719 158.410156 L 538.636719 342 L 380 342 Z M 380 158.410156 " clip-rule="nonzero"/></clipPath><clipPath id="4958a488cd"><path d="M 381.449219 316.574219 C 387 303.449219 390 297.074219 393.375 291.976562 C 396.824219 286.726562 400.574219 282.675781 405.449219 276.898438 C 412.425781 268.800781 423.226562 257.851562 431.625 248.101562 C 439.875 238.425781 447.523438 228.75 455.398438 218.699219 C 463.5 208.273438 472.351562 194.925781 479.625 186.523438 C 484.800781 180.601562 489.601562 176.175781 493.875 172.199219 C 497.175781 169.125 500.25 166.5 502.949219 164.398438 C 504.976562 162.824219 506.550781 161.550781 508.574219 160.648438 C 510.601562 159.675781 512.925781 159.074219 515.101562 158.851562 C 517.351562 158.625 519.675781 158.773438 521.851562 159.226562 C 524.023438 159.75 526.199219 160.574219 528.148438 161.773438 C 530.023438 162.898438 531.824219 164.476562 533.25 166.125 C 534.75 167.851562 535.949219 169.875 536.773438 171.976562 C 537.601562 174.074219 538.050781 176.324219 538.199219 178.574219 C 538.273438 180.824219 538.050781 183.148438 537.449219 185.324219 C 536.851562 187.425781 535.800781 189.601562 534.523438 191.476562 C 533.324219 193.273438 531.675781 195 529.875 196.351562 C 528.074219 197.699219 525.976562 198.75 523.875 199.5 C 521.773438 200.175781 519.449219 200.550781 517.199219 200.550781 C 515.023438 200.550781 512.625 200.175781 510.523438 199.425781 C 508.425781 198.75 506.324219 197.625 504.601562 196.273438 C 502.800781 194.925781 501.148438 193.125 499.949219 191.324219 C 498.675781 189.449219 497.699219 187.273438 497.101562 185.175781 C 496.5 183 496.273438 180.675781 496.425781 178.425781 C 496.574219 176.175781 497.023438 173.925781 497.925781 171.824219 C 498.75 169.726562 499.949219 167.699219 501.375 166.050781 C 502.875 164.324219 504.675781 162.824219 506.550781 161.699219 C 508.5 160.574219 510.675781 159.675781 512.851562 159.226562 C 515.023438 158.699219 517.425781 158.625 519.601562 158.851562 C 521.851562 159.074219 524.101562 159.75 526.125 160.726562 C 528.148438 161.625 530.101562 162.976562 531.75 164.476562 C 533.324219 166.050781 534.75 167.925781 535.800781 169.949219 C 536.851562 171.898438 537.601562 174.148438 537.976562 176.324219 C 538.273438 178.5 538.273438 180.898438 537.898438 183.074219 C 537.523438 185.324219 536.773438 187.574219 535.726562 189.523438 C 534.675781 191.476562 533.476562 192.976562 531.601562 194.851562 C 529.050781 197.550781 524.851562 200.25 521.25 203.550781 C 516.976562 207.449219 512.773438 211.425781 507.898438 216.976562 C 500.773438 225.074219 491.851562 237.898438 483.601562 247.949219 C 475.574219 257.851562 467.851562 267.226562 459.148438 276.898438 C 449.925781 287.101562 436.800781 298.875 429.675781 307.5 C 425.023438 313.050781 422.023438 317.398438 419.175781 322.199219 C 416.699219 326.398438 415.199219 331.875 413.324219 334.574219 C 412.273438 336.074219 411.675781 336.824219 410.324219 337.800781 C 408.375 339.226562 405.148438 341.101562 402.375 341.625 C 399.601562 342.226562 395.851562 341.925781 393.523438 341.398438 C 391.875 341.023438 390.898438 340.648438 389.398438 339.675781 C 387.449219 338.398438 384.449219 335.550781 383.023438 333.675781 C 381.976562 332.25 381.523438 331.273438 381.074219 329.625 C 380.398438 327.300781 380.023438 323.25 380.25 320.851562 C 380.398438 319.125 381.449219 316.574219 381.449219 316.574219 " clip-rule="nonzero"/></clipPath><clipPath id="455c475a48"><path d="M 403 154 L 491 154 L 491 285 L 403 285 Z M 403 154 " clip-rule="nonzero"/></clipPath><clipPath id="96f655aa95"><path d="M 303.65625 148 L 482.644531 128.941406 L 506.46875 352.675781 L 327.480469 371.734375 Z M 303.65625 148 " clip-rule="nonzero"/></clipPath><clipPath id="1c85e77eaf"><path d="M 482.53125 128.953125 L 303.542969 148.011719 L 327.363281 371.746094 L 506.351562 352.691406 Z M 482.53125 128.953125 " clip-rule="nonzero"/></clipPath><clipPath id="26447710d9"><path d="M 401 152 L 493 152 L 493 287 L 401 287 Z M 401 152 " clip-rule="nonzero"/></clipPath><clipPath id="7c6eec9d4c"><path d="M 303.65625 148 L 482.644531 128.941406 L 506.46875 352.675781 L 327.480469 371.734375 Z M 303.65625 148 " clip-rule="nonzero"/></clipPath><clipPath id="8d8ef09efb"><path d="M 482.53125 128.953125 L 303.542969 148.011719 L 327.363281 371.746094 L 506.351562 352.691406 Z M 482.53125 128.953125 " clip-rule="nonzero"/></clipPath><clipPath id="9562732467"><path d="M 403 192 L 462 192 L 462 285 L 403 285 Z M 403 192 " clip-rule="nonzero"/></clipPath><clipPath id="63219ea26d"><path d="M 303.65625 148 L 482.644531 128.941406 L 506.46875 352.675781 L 327.480469 371.734375 Z M 303.65625 148 " clip-rule="nonzero"/></clipPath><clipPath id="62849c508c"><path d="M 482.53125 128.953125 L 303.542969 148.011719 L 327.363281 371.746094 L 506.351562 352.691406 Z M 482.53125 128.953125 " clip-rule="nonzero"/></clipPath><clipPath id="cd86ded805"><path d="M 313 144 L 415 144 L 415 297 L 313 297 Z M 313 144 " clip-rule="nonzero"/></clipPath><clipPath id="29c05b89ef"><path d="M 303.65625 148 L 482.644531 128.941406 L 506.46875 352.675781 L 327.480469 371.734375 Z M 303.65625 148 " clip-rule="nonzero"/></clipPath><clipPath id="49d190f00e"><path d="M 482.53125 128.953125 L 303.542969 148.011719 L 327.363281 371.746094 L 506.351562 352.691406 Z M 482.53125 128.953125 " clip-rule="nonzero"/></clipPath><clipPath id="a353efd3f4"><path d="M 311 142 L 417 142 L 417 299 L 311 299 Z M 311 142 " clip-rule="nonzero"/></clipPath><clipPath id="68d81968a9"><path d="M 303.65625 148 L 482.644531 128.941406 L 506.46875 352.675781 L 327.480469 371.734375 Z M 303.65625 148 " clip-rule="nonzero"/></clipPath><clipPath id="126cbfba97"><path d="M 482.53125 128.953125 L 303.542969 148.011719 L 327.363281 371.746094 L 506.351562 352.691406 Z M 482.53125 128.953125 " clip-rule="nonzero"/></clipPath><clipPath id="d081801916"><path d="M 313 188 L 382 188 L 382 297 L 313 297 Z M 313 188 " clip-rule="nonzero"/></clipPath><clipPath id="d84fb2a4c7"><path d="M 303.65625 148 L 482.644531 128.941406 L 506.46875 352.675781 L 327.480469 371.734375 Z M 303.65625 148 " clip-rule="nonzero"/></clipPath><clipPath id="8aaf8a7ca8"><path d="M 482.53125 128.953125 L 303.542969 148.011719 L 327.363281 371.746094 L 506.351562 352.691406 Z M 482.53125 128.953125 " clip-rule="nonzero"/></clipPath><clipPath id="abdd2c9018"><path d="M 372 299 L 477 299 L 477 319 L 372 319 Z M 372 299 " clip-rule="nonzero"/></clipPath><clipPath id="66328b451e"><path d="M 303.65625 148 L 482.644531 128.941406 L 506.46875 352.675781 L 327.480469 371.734375 Z M 303.65625 148 " clip-rule="nonzero"/></clipPath><clipPath id="70557317db"><path d="M 482.53125 128.953125 L 303.542969 148.011719 L 327.363281 371.746094 L 506.351562 352.691406 Z M 482.53125 128.953125 " clip-rule="nonzero"/></clipPath><clipPath id="f2a0d6ef05"><path d="M 374 305 L 456 305 L 456 360 L 374 360 Z M 374 305 " clip-rule="nonzero"/></clipPath><clipPath id="224711b6d4"><path d="M 303.65625 148 L 482.644531 128.941406 L 506.46875 352.675781 L 327.480469 371.734375 Z M 303.65625 148 " clip-rule="nonzero"/></clipPath><clipPath id="b78a95e28c"><path d="M 482.53125 128.953125 L 303.542969 148.011719 L 327.363281 371.746094 L 506.351562 352.691406 Z M 482.53125 128.953125 " clip-rule="nonzero"/></clipPath><clipPath id="d4ef79b145"><path d="M 372 303 L 458 303 L 458 362 L 372 362 Z M 372 303 " clip-rule="nonzero"/></clipPath><clipPath id="483b29ce40"><path d="M 303.65625 148 L 482.644531 128.941406 L 506.46875 352.675781 L 327.480469 371.734375 Z M 303.65625 148 " clip-rule="nonzero"/></clipPath><clipPath id="8319b3f7a5"><path d="M 482.53125 128.953125 L 303.542969 148.011719 L 327.363281 371.746094 L 506.351562 352.691406 Z M 482.53125 128.953125 " clip-rule="nonzero"/></clipPath><clipPath id="1436f8a837"><path d="M 380 333 L 452 333 L 452 360 L 380 360 Z M 380 333 " clip-rule="nonzero"/></clipPath><clipPath id="c4828ad8f5"><path d="M 303.65625 148 L 482.644531 128.941406 L 506.46875 352.675781 L 327.480469 371.734375 Z M 303.65625 148 " clip-rule="nonzero"/></clipPath><clipPath id="2c8fa2448b"><path d="M 482.53125 128.953125 L 303.542969 148.011719 L 327.363281 371.746094 L 506.351562 352.691406 Z M 482.53125 128.953125 " clip-rule="nonzero"/></clipPath><clipPath id="b8ab11f52d"><path d="M 377 331 L 455 331 L 455 362 L 377 362 Z M 377 331 " clip-rule="nonzero"/></clipPath><clipPath id="6d7da6976f"><path d="M 303.65625 148 L 482.644531 128.941406 L 506.46875 352.675781 L 327.480469 371.734375 Z M 303.65625 148 " clip-rule="nonzero"/></clipPath><clipPath id="b3add95d5a"><path d="M 482.53125 128.953125 L 303.542969 148.011719 L 327.363281 371.746094 L 506.351562 352.691406 Z M 482.53125 128.953125 " clip-rule="nonzero"/></clipPath></defs><g clip-path="url(#231e436a33)"><g clip-path="url(#508e6e52d9)"><path fill="#e76f51" d="M 127.746094 81 L 682.253906 81 L 682.253906 635.511719 L 127.746094 635.511719 Z M 127.746094 81 " fill-opacity="1" fill-rule="nonzero"/></g></g><path fill="#ffffff" d="M 318.078125 625.464844 C 323.394531 615.632812 341.945312 614.710938 354.054688 617.074219 C 366.160156 619.4375 373.890625 623.902344 374.585938 630.3125 C 375.1875 635.835938 371.128906 639.578125 371.128906 639.578125 C 376.464844 653.175781 379.230469 678.988281 379.230469 678.988281 C 383.550781 698.617188 383.839844 713.992188 382.59375 717.113281 C 381.34375 720.234375 355.351562 727.585938 332.8125 727.59375 C 310.277344 727.597656 291.527344 720.179688 287.808594 717.65625 C 284.089844 715.136719 280.078125 703.910156 285.191406 686.011719 C 290.304688 668.113281 308.28125 659.355469 308.28125 659.355469 C 312.847656 649.375 320.128906 639.042969 320.128906 639.042969 C 316.546875 636.273438 315.558594 630.121094 318.078125 625.464844 Z M 432.675781 614.90625 C 439.277344 616.167969 451.460938 619.808594 456.800781 626.007812 C 462.136719 632.203125 459.902344 638.914062 455.578125 642.570312 C 455.578125 642.570312 458.703125 649.300781 466.609375 654.070312 C 466.609375 654.070312 485.367188 645.480469 504.617188 656.773438 C 523.871094 668.070312 528.492188 689.816406 526.277344 702.914062 C 524.0625 716.015625 520.804688 715.421875 515.671875 718.058594 C 510.535156 720.695312 484.398438 723.703125 464.402344 723.660156 C 444.410156 723.613281 429.679688 716.796875 410.492188 703.691406 C 391.304688 690.582031 393.238281 688.875 393.644531 682.8125 C 394.050781 676.753906 400.257812 648.671875 409.070312 632.761719 C 409.070312 632.761719 405.15625 626.613281 409.070312 620.445312 C 413.628906 613.261719 423.039062 613.070312 432.675781 614.90625 Z M 432.675781 614.90625 " fill-opacity="1" fill-rule="evenodd"/><path fill="#2d2e30" d="M 332.542969 622.222656 C 334.097656 545.332031 333.453125 445.5625 333.453125 445.5625 C 333.40625 438.453125 339.140625 432.644531 346.25 432.597656 C 353.363281 432.550781 359.171875 438.285156 359.21875 445.398438 C 359.21875 445.398438 361.152344 545.589844 358.304688 622.742188 L 358.515625 616.695312 C 364.050781 618.132812 368.445312 620.09375 371.402344 622.515625 C 374.070312 624.699219 375.621094 627.269531 375.933594 630.167969 C 376.445312 634.886719 373.929688 638.449219 372.695312 639.882812 C 377.714844 653.347656 380.402344 677.257812 380.570312 678.765625 C 383.351562 691.421875 384.464844 702.320312 384.582031 709.355469 C 384.582031 709.367188 384.582031 709.378906 384.582031 709.390625 C 384.59375 710.035156 384.59375 710.648438 384.589844 711.226562 C 384.554688 714.398438 384.257812 716.605469 383.851562 717.617188 C 383.714844 717.957031 383.449219 718.351562 383 718.742188 C 382.351562 719.304688 381.210938 719.964844 379.640625 720.644531 C 371.53125 724.164062 351.054688 728.945312 332.8125 728.949219 C 309.886719 728.953125 290.832031 721.34375 287.046875 718.78125 C 285.386719 717.65625 283.589844 715.027344 282.5 710.933594 C 280.988281 705.277344 280.730469 696.695312 283.886719 685.640625 C 288.679688 668.867188 304.40625 659.871094 307.242188 658.367188 C 311.007812 650.265625 316.445312 642.035156 318.339844 639.25 C 315.082031 635.839844 314.28125 629.628906 316.882812 624.820312 C 319.171875 620.589844 323.695312 617.828125 329.183594 616.277344 C 330.308594 615.960938 331.476562 615.691406 332.671875 615.46875 Z M 381.871094 711.691406 C 376.441406 714.476562 360.464844 721.355469 335.0625 721.472656 C 308.902344 721.589844 292.417969 715.789062 286.070312 713.027344 C 286.804688 714.738281 287.679688 715.933594 288.570312 716.535156 C 292.226562 719.011719 310.664062 726.242188 332.8125 726.234375 C 348.425781 726.234375 365.71875 722.667969 375.113281 719.46875 C 377.441406 718.675781 379.273438 717.914062 380.4375 717.230469 C 380.839844 716.996094 381.28125 716.617188 381.355469 716.554688 C 381.664062 715.730469 381.828125 714.058594 381.871094 711.691406 Z M 424.714844 612.59375 C 422.628906 612.527344 420.621094 612.632812 418.734375 612.957031 C 414.222656 613.742188 410.417969 615.789062 407.925781 619.71875 C 404.398438 625.273438 406.554688 630.816406 407.527344 632.761719 C 398.804688 648.953125 392.695312 676.679688 392.289062 682.722656 C 392.113281 685.378906 391.734375 687.265625 392.609375 689.5 C 393.851562 692.667969 397.804688 696.667969 409.726562 704.8125 C 429.179688 718.101562 444.132812 724.96875 464.398438 725.011719 C 478.472656 725.046875 495.570312 723.570312 506.332031 721.777344 C 511.117188 720.976562 514.683594 720.085938 516.289062 719.265625 C 519.011719 717.863281 521.210938 717.273438 523.050781 715.34375 C 524.527344 713.792969 525.808594 711.371094 526.867188 706.890625 C 526.886719 706.828125 526.898438 706.765625 526.910156 706.699219 C 527.15625 705.632812 527.390625 704.449219 527.613281 703.140625 C 529.894531 689.644531 525.136719 667.242188 505.304688 655.605469 C 487.617188 645.226562 470.339844 651.121094 466.730469 652.550781 C 461.265625 649.078125 458.332031 644.691406 457.273438 642.859375 C 461.542969 638.65625 463.4375 631.632812 457.828125 625.121094 C 455.832031 622.804688 452.917969 620.828125 449.6875 619.179688 C 457.847656 595.195312 465.921875 571.484375 470.417969 552.109375 C 474.210938 535.738281 475.28125 521.996094 473.035156 512.78125 C 466.878906 487.539062 443.808594 438.539062 443.808594 438.539062 C 440.769531 432.109375 433.082031 429.359375 426.65625 432.398438 C 420.226562 435.4375 417.476562 443.125 420.519531 449.550781 C 420.519531 449.550781 442.25 495.289062 448.003906 518.882812 C 449.570312 525.320312 447.96875 534.851562 445.316406 546.289062 C 440.878906 565.421875 432.78125 588.90625 424.714844 612.59375 Z M 423.800781 615.285156 C 422.203125 615.269531 420.660156 615.375 419.199219 615.628906 C 415.460938 616.277344 412.28125 617.917969 410.214844 621.171875 C 406.8125 626.539062 410.121094 631.882812 410.210938 632.027344 L 410.230469 632.058594 L 410.246094 632.089844 C 410.246094 632.089844 412.632812 636.058594 421.988281 639.40625 C 422.695312 639.660156 423.0625 640.433594 422.808594 641.140625 C 422.558594 641.84375 421.78125 642.210938 421.078125 641.957031 C 414.507812 639.609375 411.019531 636.902344 409.316406 635.179688 C 401.367188 650.636719 395.75 675.484375 395.050781 682.292969 C 397.792969 684.941406 412.816406 699.011719 430.660156 707.039062 C 433.601562 708.363281 436.457031 709.480469 439.269531 710.421875 C 439.980469 710.65625 440.363281 711.425781 440.128906 712.136719 C 439.890625 712.84375 439.121094 713.230469 438.414062 712.992188 C 435.519531 712.027344 432.574219 710.875 429.546875 709.511719 C 413.566406 702.320312 399.796875 690.398438 394.746094 685.730469 C 394.695312 686.667969 394.757812 687.550781 395.132812 688.511719 C 395.5625 689.605469 396.402344 690.785156 397.886719 692.273438 C 400.339844 694.738281 404.453125 697.921875 411.257812 702.570312 C 430.179688 715.496094 444.691406 722.257812 464.40625 722.300781 C 478.324219 722.332031 495.238281 720.875 505.886719 719.101562 C 510.28125 718.367188 513.574219 717.609375 515.050781 716.851562 C 517.460938 715.613281 519.460938 715.183594 521.085938 713.472656 C 521.976562 712.539062 522.738281 711.226562 523.417969 709.214844 C 516.449219 712.601562 505.164062 715.4375 489.785156 716.554688 C 475.414062 717.601562 463.722656 718.132812 452.222656 716.347656 C 451.480469 716.230469 450.972656 715.539062 451.089844 714.796875 C 451.207031 714.058594 451.898438 713.550781 452.640625 713.664062 C 463.949219 715.425781 475.449219 714.878906 489.589844 713.851562 C 506.265625 712.636719 517.976562 709.425781 524.378906 705.625 C 524.570312 704.738281 524.757812 703.761719 524.9375 702.6875 C 527.085938 689.984375 522.601562 668.898438 503.929688 657.945312 C 485.433594 647.089844 467.410156 655.195312 467.179688 655.300781 L 467.128906 655.324219 L 467.113281 655.332031 C 467.113281 655.332031 458.484375 658.816406 450.53125 671.082031 C 450.121094 671.707031 449.28125 671.886719 448.65625 671.480469 C 448.027344 671.070312 447.847656 670.230469 448.253906 669.605469 C 454.253906 660.355469 460.652344 655.808594 463.914062 653.925781 C 459.066406 650.484375 456.28125 646.496094 455.074219 644.46875 C 452.996094 645.558594 448.46875 647.253906 441.171875 646.621094 C 440.425781 646.558594 439.871094 645.898438 439.9375 645.152344 C 440 644.410156 440.660156 643.855469 441.40625 643.917969 C 450.296875 644.6875 454.5 641.683594 454.726562 641.515625 C 458.535156 638.28125 460.484375 632.359375 455.773438 626.890625 C 454.046875 624.890625 451.582031 623.171875 448.824219 621.730469 C 448.34375 623.144531 447.859375 624.5625 447.378906 625.980469 C 446 630.050781 440.164062 630.894531 433.433594 628.609375 C 426.699219 626.324219 421.058594 623.359375 422.980469 617.703125 C 423.25 616.898438 423.527344 616.089844 423.800781 615.285156 Z M 332.621094 618.242188 C 331.699219 618.425781 330.796875 618.640625 329.917969 618.890625 C 325.203125 620.222656 321.234375 622.472656 319.269531 626.109375 C 317.070312 630.171875 317.832031 635.554688 320.957031 637.96875 L 320.976562 637.984375 C 320.976562 637.984375 323.566406 639.984375 329.753906 641.101562 C 330.488281 641.234375 330.980469 641.941406 330.847656 642.675781 C 330.710938 643.414062 330.007812 643.902344 329.273438 643.769531 C 324.78125 642.960938 321.960938 641.699219 320.507812 640.886719 C 318.8125 643.378906 314.492188 649.925781 310.996094 656.84375 C 315.511719 655.394531 324.535156 653.484375 337.800781 655.199219 C 357.667969 657.769531 369.167969 668.410156 374.101562 674.140625 C 374.589844 674.707031 374.523438 675.5625 373.957031 676.050781 C 373.390625 676.539062 372.53125 676.476562 372.042969 675.90625 C 367.347656 670.449219 356.378906 660.339844 337.453125 657.890625 C 318.722656 655.46875 308.910156 660.554688 308.910156 660.554688 L 308.875 660.574219 C 308.875 660.574219 291.449219 669.042969 286.496094 686.382812 C 283.652344 696.34375 283.683594 704.175781 284.933594 709.503906 C 287.992188 711.054688 304.953125 718.898438 335.046875 718.757812 C 362.414062 718.632812 378.519531 710.492188 381.855469 708.625 C 381.675781 701.699219 380.550781 691.292969 377.90625 679.277344 C 377.894531 679.230469 377.886719 679.179688 377.882812 679.132812 C 377.882812 679.132812 375.367188 655.546875 370.484375 641.738281 C 368.238281 643.160156 363.496094 645.398438 355.589844 645.675781 C 354.84375 645.703125 354.214844 645.117188 354.1875 644.367188 C 354.164062 643.617188 354.75 642.992188 355.496094 642.964844 C 365.890625 642.601562 370.1875 638.601562 370.1875 638.601562 L 370.207031 638.582031 C 370.207031 638.582031 373.765625 635.300781 373.238281 630.460938 C 372.929688 627.628906 371 625.28125 367.878906 623.328125 C 365.40625 621.777344 362.210938 620.496094 358.421875 619.472656 L 358.417969 619.566406 C 358.390625 620.324219 358.363281 621.078125 358.335938 621.835938 C 358.328125 621.988281 358.324219 622.140625 358.320312 622.289062 C 358.308594 622.59375 358.304688 622.894531 358.269531 623.195312 C 358.214844 623.722656 358.089844 624.246094 357.875 624.730469 C 357.761719 624.992188 357.625 625.238281 357.464844 625.472656 C 357.359375 625.628906 357.242188 625.777344 357.117188 625.917969 C 356.460938 626.660156 355.589844 627.171875 354.679688 627.53125 C 354.542969 627.585938 354.402344 627.636719 354.265625 627.683594 C 354.066406 627.753906 353.863281 627.816406 353.664062 627.871094 C 353.410156 627.945312 353.160156 628.007812 352.90625 628.0625 C 352.574219 628.136719 352.238281 628.199219 351.90625 628.25 C 351.457031 628.324219 351.007812 628.378906 350.558594 628.421875 C 349.972656 628.476562 349.386719 628.511719 348.804688 628.535156 C 348.035156 628.566406 347.269531 628.570312 346.5 628.558594 C 345.542969 628.542969 344.582031 628.503906 343.625 628.433594 C 342.886719 628.378906 342.152344 628.308594 341.417969 628.207031 C 340.824219 628.128906 340.230469 628.03125 339.640625 627.914062 C 339.175781 627.824219 338.714844 627.71875 338.253906 627.59375 C 337.910156 627.5 337.566406 627.394531 337.226562 627.28125 C 336.964844 627.191406 336.703125 627.089844 336.445312 626.984375 C 336.269531 626.910156 336.089844 626.832031 335.914062 626.75 C 335.769531 626.679688 335.628906 626.609375 335.488281 626.535156 C 334.636719 626.078125 333.839844 625.476562 333.289062 624.667969 C 333.074219 624.355469 332.902344 624.015625 332.777344 623.65625 C 332.65625 623.308594 332.585938 622.941406 332.554688 622.574219 C 332.523438 622.15625 332.550781 621.734375 332.5625 621.320312 C 332.578125 620.414062 332.597656 619.507812 332.613281 618.601562 Z M 332.621094 618.242188 " fill-opacity="1" fill-rule="evenodd"/><g clip-path="url(#4ef0180baf)"><path fill="#000000" d="M 247.5 329.714844 C 247.5 329.714844 216.402344 379.351562 181.96875 392.902344 C 175.617188 395.402344 166.085938 394.582031 155.484375 392.480469 C 137.363281 388.890625 116.503906 380.847656 100.988281 372.816406 C 96.621094 370.554688 91.238281 372.265625 88.976562 376.636719 C 86.714844 381.003906 88.429688 386.386719 92.796875 388.648438 C 109.648438 397.375 132.332031 406.066406 152.019531 409.96875 C 166.621094 412.863281 179.746094 412.933594 188.492188 409.492188 C 227.089844 394.304688 262.539062 339.285156 262.539062 339.285156 C 265.179688 335.132812 263.953125 329.617188 259.804688 326.976562 C 255.65625 324.335938 250.140625 325.5625 247.503906 329.714844 Z M 247.5 329.714844 " fill-opacity="1" fill-rule="evenodd"/></g><path fill="#ffffff" d="M 54.359375 339.605469 C 56.980469 337.582031 58.027344 335.226562 58.433594 329.792969 C 58.839844 324.359375 59.210938 314.117188 65.253906 309.363281 C 71.300781 304.609375 76.171875 304.917969 79.785156 307.167969 C 83.398438 309.421875 81.820312 315.472656 80.238281 324.34375 C 78.65625 333.21875 82.839844 339.941406 87.570312 346.835938 C 92.304688 353.726562 94.511719 357.355469 95.210938 361.371094 C 95.210938 361.371094 101.253906 362.820312 102.773438 368.367188 C 104.292969 373.914062 99.511719 387.074219 95.699219 392.546875 C 91.886719 398.023438 85.425781 394.941406 85.425781 394.941406 C 85.425781 394.941406 79.441406 401.261719 70.796875 402.898438 C 62.148438 404.539062 53.515625 399.847656 46.886719 399.808594 C 46.886719 399.808594 41.191406 402.054688 33.363281 398.785156 C 25.835938 395.644531 19.195312 390.1875 25.777344 380.574219 C 25.777344 380.574219 20.328125 377.640625 20.390625 371.238281 C 20.449219 364.832031 25.847656 361.992188 25.847656 361.992188 C 25.847656 361.992188 21.910156 356.570312 23.8125 350.253906 C 25.71875 343.941406 33.667969 341.304688 40.734375 341.242188 C 47.796875 341.179688 51.734375 341.628906 54.359375 339.605469 Z M 54.359375 339.605469 " fill-opacity="1" fill-rule="evenodd"/><g clip-path="url(#9e6e660dcc)"><path fill="#000000" d="M 53.753906 338.824219 C 52.582031 339.726562 51.105469 340.039062 49.144531 340.171875 C 46.964844 340.320312 44.234375 340.21875 40.726562 340.25 C 36.304688 340.289062 31.554688 341.3125 28.03125 343.535156 C 25.570312 345.082031 23.699219 347.210938 22.867188 349.96875 C 21.296875 355.167969 23.417969 359.808594 24.492188 361.6875 C 22.832031 362.871094 19.449219 365.9375 19.398438 371.226562 C 19.351562 376.523438 22.742188 379.648438 24.410156 380.859375 C 22.039062 384.664062 21.671875 387.859375 22.488281 390.523438 C 23.78125 394.726562 28.179688 397.695312 32.980469 399.699219 C 40.371094 402.785156 45.964844 401.171875 47.058594 400.800781 C 50.261719 400.859375 53.9375 402.011719 57.851562 402.945312 C 62.054688 403.949219 66.515625 404.71875 70.980469 403.875 C 78.476562 402.453125 84.042969 397.632812 85.660156 396.097656 C 87.542969 396.761719 93.015625 398.132812 96.511719 393.113281 C 98.847656 389.761719 101.550781 383.578125 102.996094 377.945312 C 103.992188 374.070312 104.367188 370.441406 103.730469 368.105469 C 102.375 363.164062 97.761719 361.175781 96.070312 360.601562 C 95.246094 356.707031 93.003906 352.996094 88.386719 346.273438 C 83.804688 339.597656 79.679688 333.109375 81.214844 324.519531 C 82.179688 319.097656 83.128906 314.710938 82.949219 311.574219 C 82.8125 309.144531 82.019531 307.394531 80.308594 306.328125 C 76.417969 303.902344 71.15625 303.464844 64.644531 308.585938 C 62.074219 310.605469 60.445312 313.550781 59.417969 316.742188 C 57.941406 321.320312 57.695312 326.398438 57.445312 329.71875 C 57.070312 334.742188 56.175781 336.949219 53.753906 338.824219 Z M 94.234375 361.527344 C 93.550781 357.617188 91.359375 354.101562 86.753906 347.394531 C 81.871094 340.285156 77.632812 333.324219 79.261719 324.171875 C 80.195312 318.941406 81.144531 314.710938 80.972656 311.6875 C 80.878906 310.007812 80.441406 308.746094 79.261719 308.007812 C 75.925781 305.929688 71.445312 305.753906 65.867188 310.140625 C 63.601562 311.921875 62.207031 314.539062 61.300781 317.347656 C 59.875 321.765625 59.660156 326.667969 59.421875 329.867188 C 58.980469 335.710938 57.785156 338.214844 54.964844 340.390625 C 53.78125 341.300781 52.375 341.785156 50.59375 342.019531 C 48.183594 342.335938 45.035156 342.191406 40.742188 342.230469 C 37.351562 342.261719 33.746094 342.902344 30.757812 344.300781 C 27.914062 345.632812 25.632812 347.652344 24.761719 350.539062 C 23.085938 356.089844 26.292969 360.894531 26.621094 361.371094 C 28.382812 363.304688 31.273438 364.695312 33.320312 365.246094 C 42.171875 367.640625 50.699219 364.855469 50.828125 364.8125 L 50.851562 364.804688 L 50.859375 364.800781 C 50.875 364.796875 50.890625 364.792969 50.90625 364.789062 C 51.15625 364.726562 57.308594 363.097656 56.851562 357.203125 C 56.4375 351.863281 51.101562 348.164062 40.816406 347.828125 C 40.269531 347.808594 39.84375 347.351562 39.859375 346.804688 C 39.878906 346.257812 40.335938 345.828125 40.882812 345.847656 C 48.230469 346.089844 53.238281 348.042969 56.0625 350.96875 C 55.742188 348.667969 55.710938 347.203125 55.710938 347.203125 C 55.699219 346.65625 56.132812 346.203125 56.679688 346.191406 C 57.226562 346.179688 57.679688 346.613281 57.691406 347.160156 C 57.691406 347.160156 57.980469 362.773438 67.757812 371.429688 C 68.167969 371.789062 68.207031 372.417969 67.84375 372.828125 C 67.484375 373.238281 66.855469 373.273438 66.449219 372.914062 C 62.503906 369.421875 60.007812 364.871094 58.425781 360.566406 C 57.476562 363.40625 55.148438 365.046875 53.425781 365.90625 C 55.488281 367.320312 58.410156 370.214844 57.933594 375.054688 C 57.578125 378.671875 55.660156 381.0625 52.644531 382.582031 C 52.113281 382.851562 51.542969 383.09375 50.941406 383.304688 C 54.40625 385.710938 55.886719 390.027344 54.488281 393.769531 C 53.527344 396.347656 51.796875 398.0625 50.261719 399.148438 C 52.773438 399.574219 55.484375 400.34375 58.3125 401.019531 C 62.25 401.960938 66.429688 402.71875 70.613281 401.929688 C 78.726562 400.390625 84.402344 394.574219 84.691406 394.269531 C 87.617188 390.925781 89.683594 387.179688 91.132812 383.449219 C 91.328125 382.941406 91.90625 382.6875 92.414062 382.886719 C 92.921875 383.085938 93.175781 383.660156 92.976562 384.167969 C 91.605469 387.703125 89.703125 391.246094 87.097656 394.488281 C 88.960938 395.003906 92.511719 395.390625 94.886719 391.980469 C 97.125 388.769531 99.695312 382.847656 101.078125 377.453125 C 101.96875 373.972656 102.394531 370.726562 101.820312 368.628906 C 100.886719 365.222656 98.050781 363.535156 96.335938 362.808594 C 96.445312 364.578125 96.480469 367.65625 95.835938 371.140625 C 95.734375 371.679688 95.21875 372.035156 94.679688 371.933594 C 94.144531 371.832031 93.789062 371.316406 93.886719 370.78125 C 94.800781 365.847656 94.265625 361.777344 94.234375 361.527344 Z M 26.078125 381.921875 C 24.113281 385.082031 23.699219 387.71875 24.382812 389.941406 C 25.519531 393.640625 29.515625 396.105469 33.742188 397.871094 C 41.046875 400.921875 46.386719 398.941406 46.523438 398.890625 C 46.542969 398.882812 46.5625 398.875 46.582031 398.867188 L 46.597656 398.863281 C 46.597656 398.863281 50.980469 397.503906 52.632812 393.074219 C 53.921875 389.621094 52.011719 385.59375 48.1875 384.0625 C 46.21875 384.476562 44.011719 384.695312 41.636719 384.773438 C 32.914062 385.058594 27.96875 382.960938 26.078125 381.921875 Z M 25.695312 363.253906 C 24.386719 364.167969 21.421875 366.734375 21.378906 371.246094 C 21.328125 376.910156 26.023438 379.578125 26.238281 379.699219 C 26.277344 379.71875 26.316406 379.742188 26.351562 379.769531 L 26.371094 379.785156 C 26.402344 379.804688 30.980469 383.140625 41.570312 382.792969 C 45.621094 382.660156 49.160156 382.121094 51.757812 380.816406 C 54.144531 379.609375 55.683594 377.726562 55.964844 374.859375 C 56.464844 369.765625 52.253906 367.371094 51.074219 366.804688 C 49.261719 367.335938 41.167969 369.417969 32.804688 367.160156 C 30.664062 366.582031 27.722656 365.179688 25.695312 363.253906 Z M 25.695312 363.253906 " fill-opacity="1" fill-rule="evenodd"/></g><g clip-path="url(#c381f97e0e)"><g clip-path="url(#e78bfc6a2f)"><g clip-path="url(#2ff816ce25)"><path fill="#2d2e30" d="M 549.535156 353.503906 C 549.535156 353.503906 590.78125 395.15625 627.382812 400.839844 C 634.132812 401.890625 643.261719 399 653.15625 394.625 C 670.066406 387.148438 688.679688 374.730469 702.074219 363.488281 C 705.84375 360.320312 711.476562 360.8125 714.640625 364.585938 C 717.804688 368.355469 717.3125 373.988281 713.542969 377.152344 C 698.992188 389.363281 678.742188 402.816406 660.371094 410.941406 C 646.742188 416.96875 633.941406 419.914062 624.644531 418.46875 C 583.617188 412.09375 536.945312 366.140625 536.945312 366.140625 C 533.457031 362.667969 533.445312 357.015625 536.921875 353.527344 C 540.394531 350.039062 546.050781 350.03125 549.535156 353.503906 Z M 549.535156 353.503906 " fill-opacity="1" fill-rule="evenodd"/></g></g></g><g clip-path="url(#5d1200a599)"><g clip-path="url(#3780dcecbe)"><g clip-path="url(#54d980474e)"><path fill="#ffffff" d="M 740.34375 320.84375 C 737.339844 319.445312 735.800781 317.371094 734.214844 312.15625 C 732.625 306.941406 730.019531 297.023438 723.074219 293.703125 C 716.128906 290.386719 711.441406 291.753906 708.40625 294.742188 C 705.367188 297.734375 708.234375 303.296875 711.722656 311.613281 C 715.210938 319.929688 712.601562 327.414062 709.488281 335.179688 C 706.375 342.945312 705.011719 346.972656 705.210938 351.046875 C 705.210938 351.046875 699.625 353.785156 699.355469 359.535156 C 699.085938 365.28125 706.636719 377.085938 711.5625 381.59375 C 716.484375 386.101562 722.121094 381.679688 722.121094 381.679688 C 722.121094 381.679688 729.347656 386.539062 738.152344 386.246094 C 746.957031 385.949219 754.363281 379.476562 760.824219 377.988281 C 760.824219 377.988281 766.882812 378.933594 773.8125 374.027344 C 780.472656 369.308594 785.765625 362.527344 777.230469 354.582031 C 777.230469 354.582031 781.910156 350.527344 780.449219 344.289062 C 778.984375 338.046875 773.089844 336.457031 773.089844 336.457031 C 773.089844 336.457031 775.75 330.296875 772.507812 324.550781 C 769.265625 318.800781 760.921875 317.96875 754.007812 319.457031 C 747.097656 320.945312 743.347656 322.246094 740.34375 320.84375 Z M 740.34375 320.84375 " fill-opacity="1" fill-rule="evenodd"/></g></g></g><g clip-path="url(#5db1034cce)"><g clip-path="url(#06bc13cd56)"><g clip-path="url(#bb7dea91c2)"><path fill="#2d2e30" d="M 740.761719 319.949219 C 742.105469 320.574219 743.613281 320.554688 745.558594 320.253906 C 747.71875 319.921875 750.367188 319.226562 753.800781 318.488281 C 758.125 317.554688 762.988281 317.515625 766.917969 318.910156 C 769.660156 319.886719 771.953125 321.550781 773.371094 324.0625 C 776.042969 328.796875 774.984375 333.792969 774.347656 335.859375 C 776.226562 336.65625 780.203125 338.90625 781.414062 344.0625 C 782.621094 349.21875 779.992188 353.011719 778.628906 354.5625 C 781.777344 357.757812 782.835938 360.796875 782.621094 363.578125 C 782.28125 367.960938 778.636719 371.824219 774.382812 374.835938 C 767.84375 379.46875 762.023438 379.117188 760.878906 378.996094 C 757.757812 379.753906 754.421875 381.683594 750.800781 383.457031 C 746.921875 385.355469 742.730469 387.085938 738.183594 387.234375 C 730.550781 387.492188 724.0625 384.003906 722.144531 382.859375 C 720.453125 383.921875 715.40625 386.457031 710.890625 382.324219 C 707.875 379.5625 703.882812 374.117188 701.234375 368.933594 C 699.417969 365.367188 698.253906 361.910156 698.367188 359.488281 C 698.605469 354.367188 702.675781 351.414062 704.203125 350.480469 C 704.15625 346.5 705.53125 342.386719 708.566406 334.808594 C 711.582031 327.289062 714.1875 320.050781 710.808594 311.996094 C 708.679688 306.917969 706.792969 302.839844 706.277344 299.742188 C 705.882812 297.339844 706.273438 295.453125 707.707031 294.039062 C 710.976562 290.816406 716.023438 289.238281 723.503906 292.8125 C 726.457031 294.222656 728.691406 296.738281 730.390625 299.628906 C 732.839844 303.773438 734.191406 308.683594 735.164062 311.867188 C 736.628906 316.6875 737.984375 318.648438 740.761719 319.949219 Z M 706.199219 350.984375 C 706.011719 347.015625 707.378906 343.105469 710.40625 335.546875 C 713.617188 327.535156 716.234375 319.808594 712.636719 311.230469 C 710.582031 306.328125 708.730469 302.40625 708.234375 299.417969 C 707.960938 297.757812 708.109375 296.429688 709.101562 295.449219 C 711.902344 292.691406 716.238281 291.535156 722.648438 294.597656 C 725.25 295.839844 727.1875 298.089844 728.683594 300.632812 C 731.046875 304.632812 732.332031 309.375 733.265625 312.445312 C 734.972656 318.054688 736.691406 320.234375 739.925781 321.742188 C 741.277344 322.375 742.757812 322.539062 744.550781 322.378906 C 746.972656 322.160156 750.015625 321.328125 754.214844 320.425781 C 757.535156 319.710938 761.199219 319.546875 764.417969 320.257812 C 767.488281 320.933594 770.160156 322.40625 771.644531 325.035156 C 774.496094 330.085938 772.417969 335.484375 772.199219 336.019531 C 770.90625 338.292969 768.382812 340.285156 766.507812 341.273438 C 758.382812 345.546875 749.449219 344.695312 749.3125 344.679688 L 749.277344 344.679688 C 749.261719 344.675781 749.246094 344.675781 749.230469 344.675781 C 748.972656 344.667969 742.605469 344.429688 741.761719 338.574219 C 740.996094 333.269531 745.398438 328.488281 755.371094 325.90625 C 755.898438 325.769531 756.214844 325.226562 756.082031 324.699219 C 755.941406 324.167969 755.402344 323.847656 754.871094 323.988281 C 747.746094 325.832031 743.285156 328.839844 741.167969 332.3125 C 740.976562 329.996094 740.683594 328.558594 740.683594 328.558594 C 740.574219 328.019531 740.054688 327.675781 739.515625 327.785156 C 738.980469 327.894531 738.632812 328.414062 738.742188 328.953125 C 738.742188 328.953125 741.878906 344.257812 734.222656 354.851562 C 733.902344 355.296875 734.003906 355.914062 734.445312 356.234375 C 734.890625 356.558594 735.511719 356.457031 735.832031 356.011719 C 738.917969 351.742188 740.359375 346.75 740.960938 342.203125 C 742.507812 344.765625 745.144531 345.855469 747.015625 346.320312 C 745.308594 348.152344 743.089844 351.621094 744.613281 356.238281 C 745.753906 359.695312 748.152344 361.609375 751.429688 362.433594 C 752.007812 362.578125 752.617188 362.6875 753.25 362.765625 C 750.394531 365.875 749.894531 370.410156 752.078125 373.757812 C 753.582031 376.0625 755.648438 377.359375 757.386719 378.082031 C 755.027344 379.050781 752.546875 380.394531 749.929688 381.675781 C 746.292969 383.457031 742.378906 385.113281 738.117188 385.253906 C 729.855469 385.53125 723.039062 381.097656 722.6875 380.863281 C 719.097656 378.242188 716.261719 375.035156 714.03125 371.710938 C 713.726562 371.253906 713.109375 371.136719 712.652344 371.441406 C 712.199219 371.746094 712.078125 372.363281 712.382812 372.816406 C 714.5 375.964844 717.132812 379.011719 720.390625 381.601562 C 718.683594 382.515625 715.296875 383.671875 712.230469 380.863281 C 709.339844 378.21875 705.535156 372.996094 703 368.035156 C 701.367188 364.832031 700.242188 361.753906 700.34375 359.578125 C 700.511719 356.046875 702.910156 353.78125 704.425781 352.695312 C 704.707031 354.445312 705.347656 357.460938 706.742188 360.722656 C 706.957031 361.226562 707.539062 361.460938 708.042969 361.242188 C 708.542969 361.027344 708.777344 360.445312 708.5625 359.941406 C 706.589844 355.324219 706.21875 351.234375 706.199219 350.984375 Z M 777.230469 355.964844 C 779.84375 358.621094 780.824219 361.105469 780.644531 363.425781 C 780.34375 367.285156 776.980469 370.566406 773.238281 373.21875 C 766.773438 377.796875 761.121094 377.03125 760.980469 377.011719 C 760.960938 377.007812 760.9375 377.007812 760.917969 377.003906 L 760.902344 377.003906 C 760.902344 377.003906 756.320312 376.636719 753.738281 372.671875 C 751.726562 369.585938 752.707031 365.230469 756.105469 362.902344 C 758.121094 362.871094 760.324219 362.601562 762.660156 362.15625 C 771.242188 360.527344 775.613281 357.394531 777.230469 355.964844 Z M 773.515625 337.65625 C 774.996094 338.261719 778.453125 340.113281 779.480469 344.511719 C 780.773438 350.03125 776.769531 353.667969 776.585938 353.828125 C 776.554688 353.859375 776.523438 353.886719 776.492188 353.921875 L 776.476562 353.941406 C 776.453125 353.96875 772.710938 358.230469 762.292969 360.210938 C 758.304688 360.96875 754.730469 361.21875 751.910156 360.511719 C 749.3125 359.855469 747.398438 358.355469 746.496094 355.617188 C 744.890625 350.753906 748.480469 347.492188 749.507812 346.683594 C 751.394531 346.804688 759.753906 347.0625 767.429688 343.023438 C 769.394531 341.992188 771.957031 339.980469 773.515625 337.65625 Z M 773.515625 337.65625 " fill-opacity="1" fill-rule="evenodd"/></g></g></g><path fill="#f4a261" d="M 147.0625 484.398438 C 147.0625 484.398438 141.351562 492.027344 143.507812 496.371094 C 145.667969 500.71875 150.015625 502.878906 150.015625 502.878906 L 659.820312 500.71875 L 664.382812 495.304688 C 666.351562 492.984375 666.433594 489.566406 664.546875 487.160156 L 662.386719 484.398438 Z M 147.0625 484.398438 " fill-opacity="1" fill-rule="nonzero"/><path fill="#e9c46a" d="M 197.085938 402.234375 L 192.738281 405.84375 L 146.40625 485.492188 C 146.40625 485.492188 144.957031 490.550781 153.652344 491.289062 C 162.34375 492 658.371094 491.289062 658.371094 491.289062 C 658.371094 491.289062 667.773438 492 660.527344 481.148438 C 653.285156 470.296875 612.75 405.84375 612.75 405.84375 Z M 197.085938 402.234375 " fill-opacity="1" fill-rule="nonzero"/><path fill="#e9c46a" d="M 197.085938 402.234375 L 197.792969 140.8125 C 197.792969 140.8125 199.953125 133.570312 207.933594 133.570312 C 215.917969 133.570312 600.421875 133.570312 600.421875 133.570312 C 600.421875 133.570312 612.722656 132.121094 613.460938 146.609375 C 614.171875 161.09375 612.75 405.84375 612.75 405.84375 Z M 197.085938 402.234375 " fill-opacity="1" fill-rule="nonzero"/><path fill="#2a9d8f" d="M 212.308594 158.199219 C 212.308594 158.199219 214.46875 151.691406 221 151.691406 C 227.507812 151.691406 588.148438 151.691406 588.148438 151.691406 C 588.148438 151.691406 596.839844 153.140625 596.101562 165.441406 C 595.390625 177.742188 596.101562 371.8125 596.101562 371.8125 L 212.308594 371.8125 Z M 212.308594 158.199219 " fill-opacity="1" fill-rule="nonzero"/><path fill="#f4a261" d="M 229.691406 399.335938 L 230.402344 412.375 L 579.429688 412.375 L 578.71875 399.335938 Z M 229.691406 399.335938 " fill-opacity="1" fill-rule="nonzero"/><path fill="#2a9d8f" d="M 212.308594 412.375 L 596.101562 411.636719 L 617.09375 455.097656 L 189.867188 456.546875 Z M 212.308594 412.375 " fill-opacity="1" fill-rule="nonzero"/><path fill="#ffffff" d="M 390.855469 321.574219 C 390.5 321.574219 390.144531 321.4375 389.84375 321.164062 C 389.269531 320.617188 389.242188 319.6875 389.789062 319.113281 L 516.398438 187.144531 C 516.945312 186.570312 517.875 186.542969 518.449219 187.089844 C 519.023438 187.636719 519.050781 188.566406 518.503906 189.140625 L 391.890625 321.109375 C 391.617188 321.4375 391.234375 321.574219 390.855469 321.574219 Z M 390.855469 321.574219 " fill-opacity="1" fill-rule="nonzero"/><path fill="#ffffff" d="M 287.3125 351.996094 C 286.957031 351.996094 286.601562 351.859375 286.300781 351.585938 C 285.726562 351.039062 285.699219 350.109375 286.246094 349.535156 L 412.855469 217.566406 C 413.402344 216.992188 414.332031 216.964844 414.90625 217.511719 C 415.480469 218.058594 415.507812 218.988281 414.960938 219.5625 L 288.351562 351.53125 C 288.078125 351.859375 287.695312 351.996094 287.3125 351.996094 Z M 287.3125 351.996094 " fill-opacity="1" fill-rule="nonzero"/><path fill="#ffffff" d="M 402.496094 138.164062 C 395.964844 138.164062 395.964844 148.304688 402.496094 148.304688 C 409.03125 148.304688 409.03125 138.164062 402.496094 138.164062 Z M 402.496094 138.164062 " fill-opacity="1" fill-rule="nonzero"/><path fill="#ffffff" d="M 298.847656 489.484375 C 298.738281 489.484375 298.628906 489.484375 298.546875 489.457031 C 297.753906 489.292969 297.261719 488.527344 297.453125 487.734375 L 302.511719 464.554688 C 302.675781 463.761719 303.46875 463.269531 304.234375 463.460938 C 305.023438 463.625 305.515625 464.390625 305.324219 465.183594 L 300.269531 488.363281 C 300.105469 489.019531 299.503906 489.484375 298.847656 489.484375 Z M 298.847656 489.484375 " fill-opacity="1" fill-rule="nonzero"/><path fill="#ffffff" d="M 382.105469 489.484375 C 382.050781 489.484375 381.96875 489.484375 381.914062 489.484375 C 381.121094 489.375 380.574219 488.664062 380.65625 487.871094 L 382.816406 471.226562 C 382.925781 470.433594 383.636719 469.886719 384.429688 469.96875 C 385.222656 470.078125 385.769531 470.789062 385.6875 471.582031 L 383.527344 488.226562 C 383.445312 488.964844 382.84375 489.484375 382.105469 489.484375 Z M 382.105469 489.484375 " fill-opacity="1" fill-rule="nonzero"/><path fill="#ffffff" d="M 459.242188 489.128906 C 458.503906 489.128906 457.875 488.554688 457.792969 487.816406 L 455.632812 464.636719 C 455.550781 463.84375 456.152344 463.132812 456.945312 463.050781 C 457.738281 462.96875 458.449219 463.570312 458.53125 464.363281 L 460.691406 487.542969 C 460.773438 488.335938 460.171875 489.046875 459.378906 489.128906 C 459.324219 489.128906 459.269531 489.128906 459.242188 489.128906 Z M 459.242188 489.128906 " fill-opacity="1" fill-rule="nonzero"/><path fill="#603813" d="M 586.671875 233.148438 C 586.070312 233.148438 585.578125 232.65625 585.578125 232.054688 L 585.578125 160.710938 L 539.605469 160.710938 C 539.003906 160.710938 538.511719 160.222656 538.511719 159.621094 C 538.511719 159.019531 539.003906 158.527344 539.605469 158.527344 L 586.671875 158.527344 C 587.273438 158.527344 587.765625 159.019531 587.765625 159.621094 L 587.765625 232.027344 C 587.765625 232.65625 587.273438 233.148438 586.671875 233.148438 Z M 586.671875 233.148438 " fill-opacity="1" fill-rule="nonzero"/><path fill="#603813" d="M 241.636719 362.410156 L 222.09375 362.410156 C 221.492188 362.410156 221 361.917969 221 361.316406 L 221 314.246094 C 221 313.644531 221.492188 313.152344 222.09375 313.152344 C 222.695312 313.152344 223.1875 313.644531 223.1875 314.246094 L 223.1875 360.222656 L 241.664062 360.222656 C 242.265625 360.222656 242.757812 360.714844 242.757812 361.316406 C 242.757812 361.917969 242.238281 362.410156 241.636719 362.410156 Z M 241.636719 362.410156 " fill-opacity="1" fill-rule="nonzero"/><path fill="#603813" d="M 264.789062 362.410156 L 251.039062 362.410156 C 250.441406 362.410156 249.949219 361.917969 249.949219 361.316406 C 249.949219 360.714844 250.441406 360.222656 251.039062 360.222656 L 264.789062 360.222656 C 265.390625 360.222656 265.882812 360.714844 265.882812 361.316406 C 265.882812 361.917969 265.390625 362.410156 264.789062 362.410156 Z M 264.789062 362.410156 " fill-opacity="1" fill-rule="nonzero"/><path fill="#ffffff" d="M 453.449219 450.015625 C 452.792969 450.015625 452.191406 449.550781 452.027344 448.894531 L 450.824219 443.507812 L 345.535156 443.507812 C 344.742188 443.507812 344.085938 442.851562 344.085938 442.058594 C 344.085938 441.265625 344.742188 440.609375 345.535156 440.609375 L 451.972656 440.609375 C 452.65625 440.609375 453.230469 441.074219 453.394531 441.730469 L 454.84375 448.238281 C 455.007812 449.03125 454.515625 449.796875 453.75 449.960938 C 453.640625 450.015625 453.558594 450.015625 453.449219 450.015625 Z M 453.449219 450.015625 " fill-opacity="1" fill-rule="nonzero"/><path fill="#ffffff" d="M 586.671875 433.367188 L 541.761719 433.367188 C 540.972656 433.367188 540.316406 432.710938 540.316406 431.917969 C 540.316406 431.125 540.972656 430.46875 541.761719 430.46875 L 586.671875 430.46875 C 587.464844 430.46875 588.121094 431.125 588.121094 431.917969 C 588.121094 432.710938 587.492188 433.367188 586.671875 433.367188 Z M 586.671875 433.367188 " fill-opacity="1" fill-rule="nonzero"/><path fill="#ffffff" d="M 609.851562 398.597656 C 609.058594 398.597656 608.402344 397.941406 608.402344 397.152344 L 608.402344 144.449219 C 608.402344 143.65625 609.058594 143 609.851562 143 C 610.644531 143 611.300781 143.65625 611.300781 144.449219 L 611.300781 397.179688 C 611.300781 397.96875 610.644531 398.597656 609.851562 398.597656 Z M 609.851562 398.597656 " fill-opacity="1" fill-rule="nonzero"/><g clip-path="url(#24dfaa8d10)"><path fill="#603813" d="M 197.464844 403.683594 C 196.867188 403.683594 196.375 403.191406 196.375 402.589844 L 196.375 143.355469 C 196.375 137.5625 201.074219 132.859375 206.871094 132.832031 L 602.992188 132.148438 C 602.992188 132.148438 602.992188 132.148438 603.019531 132.148438 C 608.8125 132.148438 613.515625 136.851562 613.542969 142.617188 L 614.253906 402.589844 C 614.253906 403.191406 613.761719 403.683594 613.160156 403.683594 C 612.558594 403.683594 612.066406 403.191406 612.066406 402.589844 L 611.355469 142.617188 C 611.355469 138.027344 607.609375 134.308594 603.019531 134.308594 C 603.019531 134.308594 603.019531 134.308594 602.992188 134.308594 L 206.871094 134.992188 C 202.277344 134.992188 198.53125 138.738281 198.53125 143.328125 L 198.53125 402.589844 C 198.53125 403.191406 198.066406 403.683594 197.464844 403.683594 Z M 197.464844 403.683594 " fill-opacity="1" fill-rule="nonzero"/></g><path fill="#603813" d="M 596.101562 373.261719 L 367.074219 373.261719 C 366.472656 373.261719 365.980469 372.769531 365.980469 372.167969 C 365.980469 371.566406 366.472656 371.074219 367.074219 371.074219 L 595.011719 371.074219 L 595.011719 160.820312 C 595.011719 156.777344 591.757812 153.46875 587.765625 153.441406 L 221.300781 152.757812 C 217.3125 152.757812 214.058594 156.039062 214.058594 160.113281 L 213.402344 371.101562 L 306.691406 371.101562 C 307.292969 371.101562 307.785156 371.59375 307.785156 372.195312 C 307.785156 372.796875 307.292969 373.289062 306.691406 373.289062 L 212.308594 373.289062 C 212.007812 373.289062 211.734375 373.179688 211.542969 372.960938 C 211.351562 372.769531 211.214844 372.46875 211.214844 372.195312 L 211.871094 160.113281 C 211.898438 154.863281 216.109375 150.597656 221.300781 150.597656 C 221.300781 150.597656 221.300781 150.597656 221.328125 150.597656 L 587.792969 151.28125 C 592.988281 151.28125 597.195312 155.574219 597.195312 160.820312 L 597.195312 372.195312 C 597.167969 372.769531 596.703125 373.261719 596.101562 373.261719 Z M 596.101562 373.261719 " fill-opacity="1" fill-rule="nonzero"/><path fill="#603813" d="M 356.660156 373.261719 L 346.246094 373.261719 C 345.644531 373.261719 345.152344 372.769531 345.152344 372.167969 C 345.152344 371.566406 345.644531 371.074219 346.246094 371.074219 L 356.660156 371.074219 C 357.261719 371.074219 357.753906 371.566406 357.753906 372.167969 C 357.753906 372.769531 357.261719 373.261719 356.660156 373.261719 Z M 356.660156 373.261719 " fill-opacity="1" fill-rule="nonzero"/><path fill="#603813" d="M 336.542969 373.261719 L 317.105469 373.261719 C 316.503906 373.261719 316.011719 372.769531 316.011719 372.167969 C 316.011719 371.566406 316.503906 371.074219 317.105469 371.074219 L 336.542969 371.074219 C 337.140625 371.074219 337.632812 371.566406 337.632812 372.167969 C 337.632812 372.769531 337.140625 373.261719 336.542969 373.261719 Z M 336.542969 373.261719 " fill-opacity="1" fill-rule="nonzero"/><path fill="#603813" d="M 402.742188 150.214844 C 398.945312 150.214844 395.855469 147.128906 395.855469 143.328125 C 395.855469 139.527344 398.945312 136.441406 402.742188 136.441406 C 406.542969 136.441406 409.632812 139.527344 409.632812 143.328125 C 409.632812 147.15625 406.542969 150.214844 402.742188 150.214844 Z M 402.742188 138.65625 C 400.148438 138.65625 398.042969 140.757812 398.042969 143.355469 C 398.042969 145.953125 400.148438 148.058594 402.742188 148.058594 C 405.339844 148.058594 407.445312 145.953125 407.445312 143.355469 C 407.445312 140.757812 405.339844 138.65625 402.742188 138.65625 Z M 402.742188 138.65625 " fill-opacity="1" fill-rule="nonzero"/><path fill="#603813" d="M 579.074219 413.085938 L 230.046875 413.085938 C 229.445312 413.085938 228.957031 412.59375 228.957031 411.992188 L 228.957031 399.691406 C 228.957031 399.089844 229.445312 398.597656 230.046875 398.597656 L 579.074219 398.597656 C 579.675781 398.597656 580.167969 399.089844 580.167969 399.691406 L 580.167969 411.992188 C 580.167969 412.59375 579.675781 413.085938 579.074219 413.085938 Z M 231.140625 410.925781 L 578.007812 410.925781 L 578.007812 400.785156 L 231.140625 400.785156 Z M 231.140625 410.925781 " fill-opacity="1" fill-rule="nonzero"/><path fill="#603813" d="M 659.574219 492.738281 L 150.671875 492.738281 C 148.703125 492.738281 146.953125 491.726562 145.996094 490.03125 C 145.011719 488.335938 145.039062 486.3125 146.023438 484.617188 L 192.191406 405.652344 C 192.382812 405.324219 192.738281 405.105469 193.121094 405.105469 L 225.703125 405.105469 C 226.304688 405.105469 226.796875 405.597656 226.796875 406.199219 C 226.796875 406.800781 226.304688 407.292969 225.703125 407.292969 L 193.75 407.292969 L 147.882812 485.710938 C 147.28125 486.722656 147.28125 487.925781 147.882812 488.9375 C 148.457031 489.949219 149.523438 490.550781 150.671875 490.550781 L 659.574219 490.550781 C 660.773438 490.550781 661.8125 489.921875 662.386719 488.882812 C 662.960938 487.84375 662.933594 486.613281 662.277344 485.601562 L 612.503906 407.292969 L 585.578125 407.292969 C 584.976562 407.292969 584.488281 406.800781 584.488281 406.199219 C 584.488281 405.597656 584.976562 405.105469 585.578125 405.105469 L 613.105469 405.105469 C 613.488281 405.105469 613.816406 405.296875 614.035156 405.597656 L 664.136719 484.425781 C 665.203125 486.121094 665.285156 488.171875 664.300781 489.921875 C 663.34375 491.699219 661.566406 492.738281 659.574219 492.738281 Z M 659.574219 492.738281 " fill-opacity="1" fill-rule="nonzero"/><g clip-path="url(#3714ac0b74)"><path fill="#603813" d="M 150.398438 504.328125 C 150.097656 504.328125 149.824219 504.21875 149.632812 504 L 142.390625 496.753906 C 141.953125 496.316406 141.953125 495.632812 142.390625 495.222656 C 142.828125 494.785156 143.507812 494.785156 143.917969 495.222656 L 150.835938 502.140625 L 658.945312 499.980469 L 666.597656 490.960938 C 666.980469 490.496094 667.664062 490.441406 668.128906 490.824219 C 668.59375 491.207031 668.648438 491.890625 668.265625 492.355469 L 660.308594 501.757812 C 660.089844 502.003906 659.792969 502.140625 659.492188 502.140625 Z M 150.398438 504.328125 " fill-opacity="1" fill-rule="nonzero"/></g><path fill="#603813" d="M 294.5 489.128906 C 294.417969 489.128906 294.335938 489.128906 294.28125 489.101562 C 293.710938 488.964844 293.328125 488.390625 293.464844 487.816406 L 299.257812 461.03125 C 299.367188 460.539062 299.804688 460.183594 300.324219 460.183594 L 461.046875 460.183594 C 461.59375 460.183594 462.058594 460.59375 462.140625 461.140625 L 465.039062 487.925781 C 465.09375 488.527344 464.683594 489.046875 464.082031 489.128906 C 463.480469 489.183594 462.960938 488.773438 462.878906 488.171875 L 460.089844 462.339844 L 301.171875 462.339844 L 295.566406 488.28125 C 295.429688 488.773438 294.992188 489.128906 294.5 489.128906 Z M 294.5 489.128906 " fill-opacity="1" fill-rule="nonzero"/><path fill="#603813" d="M 190.222656 457.996094 C 189.839844 457.996094 189.511719 457.804688 189.292969 457.476562 C 189.101562 457.148438 189.074219 456.765625 189.238281 456.410156 L 211.679688 411.5 C 211.871094 411.144531 212.226562 410.898438 212.664062 410.898438 L 225.703125 410.898438 C 226.304688 410.898438 226.796875 411.390625 226.796875 411.992188 C 226.796875 412.59375 226.304688 413.085938 225.703125 413.085938 L 213.347656 413.085938 L 192 455.808594 L 615.019531 453.648438 L 595.09375 413.085938 L 582.738281 413.085938 C 582.136719 413.085938 581.644531 412.59375 581.644531 411.992188 C 581.644531 411.390625 582.136719 410.898438 582.738281 410.898438 L 595.773438 410.898438 C 596.183594 410.898438 596.566406 411.144531 596.757812 411.5 L 617.75 454.222656 C 617.914062 454.550781 617.886719 454.960938 617.695312 455.261719 C 617.503906 455.589844 617.148438 455.78125 616.769531 455.78125 Z M 190.222656 457.996094 " fill-opacity="1" fill-rule="nonzero"/><path fill="#603813" d="M 377.050781 489.128906 C 376.996094 489.128906 376.96875 489.128906 376.914062 489.128906 C 376.3125 489.046875 375.902344 488.5 375.957031 487.925781 L 378.117188 470.542969 C 378.199219 469.941406 378.746094 469.53125 379.320312 469.585938 C 379.921875 469.667969 380.328125 470.214844 380.273438 470.789062 L 378.117188 488.171875 C 378.0625 488.71875 377.597656 489.128906 377.050781 489.128906 Z M 377.050781 489.128906 " fill-opacity="1" fill-rule="nonzero"/><path fill="#603813" d="M 587.765625 417.433594 L 217.722656 417.433594 C 217.121094 417.433594 216.628906 416.941406 216.628906 416.339844 C 216.628906 415.738281 217.121094 415.246094 217.722656 415.246094 L 587.765625 415.246094 C 588.367188 415.246094 588.859375 415.738281 588.859375 416.339844 C 588.859375 416.941406 588.367188 417.433594 587.765625 417.433594 Z M 587.765625 417.433594 " fill-opacity="1" fill-rule="nonzero"/><path fill="#603813" d="M 595.011719 429.023438 L 214.113281 429.023438 C 213.511719 429.023438 213.019531 428.53125 213.019531 427.929688 C 213.019531 427.328125 213.511719 426.835938 214.113281 426.835938 L 595.011719 426.835938 C 595.609375 426.835938 596.101562 427.328125 596.101562 427.929688 C 596.101562 428.53125 595.609375 429.023438 595.011719 429.023438 Z M 595.011719 429.023438 " fill-opacity="1" fill-rule="nonzero"/><path fill="#603813" d="M 600.804688 439.164062 L 210.503906 439.164062 C 209.902344 439.164062 209.410156 438.671875 209.410156 438.070312 C 209.410156 437.46875 209.902344 436.976562 210.503906 436.976562 L 600.804688 436.976562 C 601.40625 436.976562 601.898438 437.46875 601.898438 438.070312 C 601.898438 438.671875 601.40625 439.164062 600.804688 439.164062 Z M 600.804688 439.164062 " fill-opacity="1" fill-rule="nonzero"/><path fill="#603813" d="M 232.589844 429.023438 C 232.398438 429.023438 232.207031 428.96875 232.042969 428.859375 C 231.523438 428.558594 231.359375 427.875 231.660156 427.382812 L 238.550781 415.792969 C 238.851562 415.273438 239.535156 415.109375 240.027344 415.410156 C 240.542969 415.710938 240.707031 416.394531 240.40625 416.886719 L 233.519531 428.476562 C 233.300781 428.832031 232.945312 429.023438 232.589844 429.023438 Z M 232.589844 429.023438 " fill-opacity="1" fill-rule="nonzero"/><path fill="#603813" d="M 272.417969 429.023438 C 272.308594 429.023438 272.171875 428.996094 272.0625 428.96875 C 271.488281 428.777344 271.1875 428.148438 271.378906 427.574219 L 275.367188 415.984375 C 275.558594 415.410156 276.1875 415.109375 276.734375 415.300781 C 277.308594 415.492188 277.609375 416.121094 277.417969 416.695312 L 273.425781 428.285156 C 273.289062 428.75 272.851562 429.023438 272.417969 429.023438 Z M 272.417969 429.023438 " fill-opacity="1" fill-rule="nonzero"/><path fill="#603813" d="M 307.15625 429.023438 C 307.101562 429.023438 307.046875 429.023438 306.992188 429.023438 C 306.390625 428.941406 305.980469 428.367188 306.089844 427.792969 L 307.894531 416.203125 C 307.976562 415.601562 308.550781 415.21875 309.125 415.300781 C 309.726562 415.382812 310.136719 415.957031 310.027344 416.53125 L 308.222656 428.121094 C 308.140625 428.640625 307.703125 429.023438 307.15625 429.023438 Z M 307.15625 429.023438 " fill-opacity="1" fill-rule="nonzero"/><path fill="#603813" d="M 339.382812 429.023438 C 338.78125 429.023438 338.289062 428.53125 338.289062 427.929688 L 338.289062 416.339844 C 338.289062 415.738281 338.78125 415.246094 339.382812 415.246094 C 339.984375 415.246094 340.476562 415.738281 340.476562 416.339844 L 340.476562 427.929688 C 340.476562 428.53125 339.984375 429.023438 339.382812 429.023438 Z M 339.382812 429.023438 " fill-opacity="1" fill-rule="nonzero"/><path fill="#603813" d="M 370.160156 429.023438 C 369.558594 429.023438 369.070312 428.53125 369.070312 427.929688 L 369.070312 416.339844 C 369.070312 415.738281 369.558594 415.246094 370.160156 415.246094 C 370.761719 415.246094 371.253906 415.738281 371.253906 416.339844 L 371.253906 427.929688 C 371.253906 428.53125 370.761719 429.023438 370.160156 429.023438 Z M 370.160156 429.023438 " fill-opacity="1" fill-rule="nonzero"/><path fill="#603813" d="M 410.34375 429.023438 C 409.824219 429.023438 409.386719 428.667969 409.277344 428.148438 L 407.117188 416.558594 C 407.007812 415.957031 407.390625 415.410156 407.992188 415.300781 C 408.566406 415.191406 409.140625 415.574219 409.25 416.175781 L 411.410156 427.765625 C 411.519531 428.367188 411.136719 428.914062 410.535156 429.023438 C 410.480469 429.023438 410.425781 429.023438 410.34375 429.023438 Z M 410.34375 429.023438 " fill-opacity="1" fill-rule="nonzero"/><path fill="#603813" d="M 448.007812 429.023438 C 447.542969 429.023438 447.105469 428.722656 446.96875 428.230469 L 443.71875 416.640625 C 443.554688 416.066406 443.882812 415.464844 444.484375 415.300781 C 445.054688 415.136719 445.65625 415.464844 445.820312 416.039062 L 449.074219 427.628906 C 449.238281 428.203125 448.910156 428.804688 448.308594 428.96875 C 448.199219 429.023438 448.117188 429.023438 448.007812 429.023438 Z M 448.007812 429.023438 " fill-opacity="1" fill-rule="nonzero"/><path fill="#603813" d="M 483.132812 429.023438 C 482.722656 429.023438 482.339844 428.804688 482.148438 428.421875 L 476.355469 416.832031 C 476.082031 416.285156 476.300781 415.628906 476.847656 415.382812 C 477.390625 415.109375 478.046875 415.328125 478.292969 415.875 L 484.089844 427.464844 C 484.363281 428.011719 484.144531 428.667969 483.597656 428.914062 C 483.460938 428.996094 483.296875 429.023438 483.132812 429.023438 Z M 483.132812 429.023438 " fill-opacity="1" fill-rule="nonzero"/><path fill="#603813" d="M 521.863281 429.023438 C 521.480469 429.023438 521.125 428.832031 520.933594 428.503906 L 514.046875 416.914062 C 513.746094 416.394531 513.910156 415.738281 514.429688 415.4375 C 514.949219 415.136719 515.605469 415.300781 515.90625 415.820312 L 522.792969 427.410156 C 523.09375 427.929688 522.929688 428.585938 522.410156 428.886719 C 522.246094 428.96875 522.054688 429.023438 521.863281 429.023438 Z M 521.863281 429.023438 " fill-opacity="1" fill-rule="nonzero"/><path fill="#603813" d="M 560.625 429.023438 C 560.296875 429.023438 559.996094 428.886719 559.777344 428.613281 L 550.375 417.023438 C 549.992188 416.558594 550.074219 415.875 550.539062 415.492188 C 551.003906 415.109375 551.6875 415.191406 552.070312 415.65625 L 561.472656 427.246094 C 561.855469 427.710938 561.773438 428.394531 561.308594 428.777344 C 561.089844 428.941406 560.84375 429.023438 560.625 429.023438 Z M 560.625 429.023438 " fill-opacity="1" fill-rule="nonzero"/><path fill="#603813" d="M 246.339844 439.164062 C 246.230469 439.164062 246.121094 439.136719 246.011719 439.109375 C 245.4375 438.917969 245.136719 438.316406 245.300781 437.742188 L 248.554688 427.601562 C 248.746094 427.027344 249.347656 426.726562 249.921875 426.890625 C 250.496094 427.082031 250.796875 427.683594 250.632812 428.257812 L 247.378906 438.398438 C 247.214844 438.863281 246.804688 439.164062 246.339844 439.164062 Z M 246.339844 439.164062 " fill-opacity="1" fill-rule="nonzero"/><path fill="#603813" d="M 224.253906 451.460938 C 224.089844 451.460938 223.953125 451.433594 223.789062 451.351562 C 223.242188 451.109375 223.023438 450.453125 223.269531 449.90625 L 229.066406 437.605469 C 229.3125 437.058594 229.964844 436.839844 230.511719 437.085938 C 231.058594 437.332031 231.277344 437.988281 231.03125 438.535156 L 225.238281 450.835938 C 225.046875 451.246094 224.664062 451.460938 224.253906 451.460938 Z M 224.253906 451.460938 " fill-opacity="1" fill-rule="nonzero"/><path fill="#603813" d="M 266.238281 452.910156 C 266.128906 452.910156 266.019531 452.882812 265.910156 452.855469 C 265.335938 452.664062 265.007812 452.0625 265.199219 451.488281 L 269.546875 437.742188 C 269.738281 437.167969 270.339844 436.839844 270.914062 437.03125 C 271.488281 437.222656 271.816406 437.824219 271.625 438.398438 L 267.277344 452.144531 C 267.140625 452.609375 266.703125 452.910156 266.238281 452.910156 Z M 266.238281 452.910156 " fill-opacity="1" fill-rule="nonzero"/><path fill="#603813" d="M 310.4375 452.910156 C 310.355469 452.910156 310.300781 452.910156 310.21875 452.882812 C 309.644531 452.746094 309.261719 452.171875 309.371094 451.597656 L 312.269531 437.851562 C 312.40625 437.277344 312.980469 436.894531 313.554688 437.003906 C 314.128906 437.140625 314.511719 437.714844 314.402344 438.289062 L 311.503906 452.035156 C 311.367188 452.554688 310.929688 452.910156 310.4375 452.910156 Z M 310.4375 452.910156 " fill-opacity="1" fill-rule="nonzero"/><path fill="#603813" d="M 459.597656 452.910156 C 459.078125 452.910156 458.613281 452.554688 458.53125 452.007812 L 455.988281 438.261719 C 455.878906 437.660156 456.261719 437.113281 456.863281 437.003906 C 457.464844 436.894531 458.011719 437.277344 458.121094 437.878906 L 460.664062 451.625 C 460.773438 452.226562 460.390625 452.773438 459.789062 452.882812 C 459.734375 452.910156 459.652344 452.910156 459.597656 452.910156 Z M 459.597656 452.910156 " fill-opacity="1" fill-rule="nonzero"/><path fill="#603813" d="M 539.605469 439.164062 C 539.25 439.164062 538.894531 439 538.703125 438.671875 L 532.195312 428.53125 C 531.867188 428.039062 532.003906 427.355469 532.523438 427.027344 C 533.015625 426.699219 533.699219 426.835938 534.027344 427.355469 L 540.535156 437.496094 C 540.863281 437.988281 540.726562 438.671875 540.207031 439 C 540.015625 439.109375 539.824219 439.164062 539.605469 439.164062 Z M 539.605469 439.164062 " fill-opacity="1" fill-rule="nonzero"/><path fill="#603813" d="M 579.074219 456 C 578.746094 456 578.417969 455.835938 578.199219 455.5625 L 567.347656 440.882812 C 566.992188 440.394531 567.101562 439.710938 567.566406 439.355469 C 568.058594 439 568.742188 439.109375 569.097656 439.574219 L 579.949219 454.25 C 580.304688 454.742188 580.195312 455.425781 579.730469 455.78125 C 579.539062 455.945312 579.292969 456 579.074219 456 Z M 579.074219 456 " fill-opacity="1" fill-rule="nonzero"/><path fill="#603813" d="M 512.105469 456 C 511.722656 456 511.367188 455.808594 511.148438 455.453125 L 501.746094 438.617188 C 501.445312 438.097656 501.636719 437.441406 502.15625 437.140625 C 502.675781 436.839844 503.332031 437.03125 503.632812 437.550781 L 513.035156 454.386719 C 513.335938 454.90625 513.144531 455.5625 512.625 455.863281 C 512.460938 455.972656 512.269531 456 512.105469 456 Z M 512.105469 456 " fill-opacity="1" fill-rule="nonzero"/><path fill="#603813" d="M 227.152344 400.785156 L 201.074219 400.785156 C 200.472656 400.785156 199.980469 400.292969 199.980469 399.691406 C 199.980469 399.089844 200.472656 398.597656 201.074219 398.597656 L 227.152344 398.597656 C 227.753906 398.597656 228.246094 399.089844 228.246094 399.691406 C 228.246094 400.292969 227.753906 400.785156 227.152344 400.785156 Z M 227.152344 400.785156 " fill-opacity="1" fill-rule="nonzero"/><path fill="#603813" d="M 609.496094 401.496094 L 582.710938 401.496094 C 582.109375 401.496094 581.617188 401.003906 581.617188 400.402344 C 581.617188 399.800781 582.109375 399.308594 582.710938 399.308594 L 609.496094 399.308594 C 610.097656 399.308594 610.589844 399.800781 610.589844 400.402344 C 610.589844 401.003906 610.097656 401.496094 609.496094 401.496094 Z M 609.496094 401.496094 " fill-opacity="1" fill-rule="nonzero"/><path fill="#603813" d="M 236.199219 480.082031 L 178.277344 480.082031 C 177.675781 480.082031 177.183594 479.589844 177.183594 478.988281 C 177.183594 478.386719 177.675781 477.894531 178.277344 477.894531 L 236.199219 477.894531 C 236.800781 477.894531 237.292969 478.386719 237.292969 478.988281 C 237.292969 479.589844 236.800781 480.082031 236.199219 480.082031 Z M 236.199219 480.082031 " fill-opacity="1" fill-rule="nonzero"/><path fill="#603813" d="M 260.089844 480.082031 L 246.339844 480.082031 C 245.738281 480.082031 245.246094 479.589844 245.246094 478.988281 C 245.246094 478.386719 245.738281 477.894531 246.339844 477.894531 L 260.089844 477.894531 C 260.691406 477.894531 261.183594 478.386719 261.183594 478.988281 C 261.183594 479.589844 260.691406 480.082031 260.089844 480.082031 Z M 260.089844 480.082031 " fill-opacity="1" fill-rule="nonzero"/><path fill="#603813" d="M 636.640625 485.136719 L 573.636719 485.136719 C 573.035156 485.136719 572.542969 484.644531 572.542969 484.042969 C 572.542969 483.445312 573.035156 482.953125 573.636719 482.953125 L 636.640625 482.953125 C 637.242188 482.953125 637.734375 483.445312 637.734375 484.042969 C 637.734375 484.644531 637.242188 485.136719 636.640625 485.136719 Z M 636.640625 485.136719 " fill-opacity="1" fill-rule="nonzero"/><g clip-path="url(#91994d5f1a)"><g clip-path="url(#b70e46b7d8)"><path fill="#2a9d8f" d="M 271.5 197.773438 L 436.367188 197.773438 L 436.367188 354.675781 L 271.5 354.675781 Z M 271.5 197.773438 " fill-opacity="1" fill-rule="nonzero"/></g></g><g clip-path="url(#38027c95c6)"><g clip-path="url(#c568b045c4)"><path fill="#2a9d8f" d="M 267.375 324.523438 L 309.074219 324.523438 L 309.074219 366.226562 L 267.375 366.226562 Z M 267.375 324.523438 " fill-opacity="1" fill-rule="nonzero"/></g></g><g clip-path="url(#15b9e0c3b0)"><g clip-path="url(#4958a488cd)"><path fill="#2a9d8f" d="M 377.25 155.851562 L 541.199219 155.851562 L 541.199219 344.777344 L 377.25 344.777344 Z M 377.25 155.851562 " fill-opacity="1" fill-rule="nonzero"/></g></g><g clip-path="url(#455c475a48)"><g clip-path="url(#96f655aa95)"><g clip-path="url(#1c85e77eaf)"><path fill="#fbfbf5" d="M 404.449219 223.90625 C 408.242188 259.527344 430.394531 286.347656 453.929688 283.839844 L 454.410156 283.789062 C 477.660156 280.925781 493.402344 250.214844 489.636719 214.835938 C 485.867188 179.457031 463.710938 152.390625 440.199219 154.894531 C 422.628906 156.765625 409.277344 174.488281 405.210938 198.109375 C 403.753906 206.671875 403.5 215.269531 404.449219 223.90625 Z M 404.449219 223.90625 " fill-opacity="1" fill-rule="nonzero"/></g></g></g><g clip-path="url(#26447710d9)"><g clip-path="url(#7c6eec9d4c)"><g clip-path="url(#8d8ef09efb)"><path fill="#2d2e30" d="M 454.144531 285.875 L 454.808594 285.804688 C 478.945312 282.828125 495.515625 250.90625 491.652344 214.640625 C 487.75 177.992188 464.566406 150.28125 439.988281 152.898438 C 422.015625 154.8125 407.570312 172.429688 403.199219 197.792969 C 401.714844 206.539062 401.464844 215.320312 402.4375 224.140625 C 406.339844 260.789062 429.542969 288.496094 454.144531 285.875 Z M 440.414062 156.929688 C 462.839844 154.523438 483.953125 180.617188 487.621094 215.050781 C 491.25 249.117188 476.242188 279.058594 454.15625 281.777344 L 453.714844 281.824219 C 431.328125 284.207031 410.132812 258.121094 406.464844 223.691406 C 405.535156 215.246094 405.78125 206.839844 407.203125 198.46875 C 411.257812 174.929688 424.273438 158.628906 440.414062 156.910156 Z M 440.414062 156.929688 " fill-opacity="1" fill-rule="nonzero"/></g></g></g><g clip-path="url(#9562732467)"><g clip-path="url(#63219ea26d)"><g clip-path="url(#62849c508c)"><path fill="#2d2e30" d="M 405.210938 198.109375 C 407.171875 196.457031 409.332031 195.125 411.6875 194.109375 C 414.042969 193.09375 416.492188 192.445312 419.042969 192.152344 C 433.144531 190.652344 446.519531 201.453125 454.460938 218.621094 L 429.238281 232.042969 L 460.570312 239.261719 C 460.714844 240.59375 460.976562 241.910156 461.121094 243.28125 C 462.765625 258.710938 460.039062 273.101562 454.332031 283.796875 L 453.847656 283.847656 C 430.316406 286.355469 408.160156 259.515625 404.371094 223.914062 C 403.445312 215.273438 403.726562 206.671875 405.210938 198.109375 Z M 405.210938 198.109375 " fill-opacity="1" fill-rule="nonzero"/></g></g></g><g clip-path="url(#cd86ded805)"><g clip-path="url(#29c05b89ef)"><g clip-path="url(#49d190f00e)"><path fill="#fbfbf5" d="M 313.96875 225.714844 C 318.425781 267.582031 344.441406 299.105469 372.085938 296.160156 L 372.667969 296.097656 C 400.003906 292.761719 418.488281 256.621094 414.0625 215.054688 C 409.636719 173.492188 383.59375 141.6875 355.953125 144.628906 C 335.320312 146.824219 319.679688 167.582031 314.839844 195.402344 C 313.136719 205.464844 312.847656 215.570312 313.96875 225.714844 Z M 313.96875 225.714844 " fill-opacity="1" fill-rule="nonzero"/></g></g></g><g clip-path="url(#a353efd3f4)"><g clip-path="url(#68d81968a9)"><g clip-path="url(#126cbfba97)"><path fill="#2d2e30" d="M 372.300781 298.175781 L 373.042969 298.097656 C 401.226562 294.667969 420.59375 257.253906 416.078125 214.84375 C 411.515625 171.96875 384.445312 139.558594 355.738281 142.613281 C 334.78125 144.84375 317.941406 165.425781 312.847656 195.066406 C 311.144531 205.3125 310.882812 215.597656 312.054688 225.917969 C 316.523438 268.824219 343.589844 301.230469 372.300781 298.175781 Z M 356.164062 146.644531 C 382.640625 143.824219 407.71875 174.613281 412.050781 215.269531 C 416.339844 255.566406 398.558594 290.855469 372.414062 294.089844 L 371.871094 294.144531 C 345.375 296.964844 320.316406 266.175781 315.984375 225.5 C 314.898438 215.542969 315.203125 205.628906 316.894531 195.753906 C 321.632812 167.945312 337.066406 148.675781 356.164062 146.644531 Z M 356.164062 146.644531 " fill-opacity="1" fill-rule="nonzero"/></g></g></g><g clip-path="url(#d081801916)"><g clip-path="url(#d84fb2a4c7)"><g clip-path="url(#8aaf8a7ca8)"><path fill="#2d2e30" d="M 314.839844 195.402344 C 317.144531 193.460938 319.679688 191.894531 322.445312 190.703125 C 325.210938 189.507812 328.09375 188.738281 331.085938 188.394531 C 347.648438 186.632812 363.492188 199.390625 372.808594 219.511719 L 343.066406 235.269531 L 379.992188 243.746094 C 380.160156 245.316406 380.46875 246.875 380.636719 248.464844 C 382.570312 266.597656 379.375 283.503906 372.675781 296.179688 L 372.09375 296.242188 C 344.449219 299.183594 318.4375 267.660156 313.976562 225.792969 C 312.847656 215.625 313.132812 205.492188 314.839844 195.402344 Z M 314.839844 195.402344 " fill-opacity="1" fill-rule="nonzero"/></g></g></g><g clip-path="url(#abdd2c9018)"><g clip-path="url(#66328b451e)"><g clip-path="url(#70557317db)"><path fill="#2d2e30" d="M 428.945312 317.511719 C 435.449219 316.804688 441.851562 315.578125 448.15625 313.835938 C 457.628906 311.3125 466.65625 307.679688 475.238281 302.945312 C 475.46875 302.808594 475.664062 302.632812 475.828125 302.417969 C 475.988281 302.203125 476.101562 301.964844 476.167969 301.707031 C 476.234375 301.445312 476.25 301.183594 476.214844 300.917969 C 476.175781 300.648438 476.085938 300.402344 475.949219 300.171875 C 475.8125 299.9375 475.636719 299.742188 475.421875 299.582031 C 475.207031 299.417969 474.972656 299.304688 474.710938 299.238281 C 474.449219 299.171875 474.1875 299.15625 473.921875 299.195312 C 473.65625 299.234375 473.40625 299.320312 473.175781 299.457031 C 464.898438 303.988281 456.203125 307.472656 447.085938 309.917969 C 430.65625 314.457031 406.007812 317.570312 381.6875 306.550781 C 379.980469 305.8125 378.167969 304.886719 375.988281 303.734375 C 375.75 303.605469 375.5 303.527344 375.230469 303.5 C 374.964844 303.472656 374.703125 303.496094 374.445312 303.574219 C 374.1875 303.652344 373.957031 303.777344 373.746094 303.945312 C 373.539062 304.113281 373.371094 304.316406 373.242188 304.554688 C 373.113281 304.789062 373.035156 305.039062 373.007812 305.308594 C 372.976562 305.574219 373 305.835938 373.078125 306.09375 C 373.152344 306.351562 373.273438 306.585938 373.441406 306.792969 C 373.609375 307.003906 373.808594 307.171875 374.046875 307.300781 C 376.359375 308.542969 378.351562 309.472656 380.046875 310.269531 C 383.867188 311.949219 387.785156 313.363281 391.796875 314.519531 C 395.808594 315.675781 399.878906 316.558594 404.011719 317.171875 C 408.140625 317.78125 412.292969 318.117188 416.464844 318.175781 C 420.640625 318.230469 424.800781 318.011719 428.945312 317.511719 Z M 428.945312 317.511719 " fill-opacity="1" fill-rule="nonzero"/></g></g></g><g clip-path="url(#f2a0d6ef05)"><g clip-path="url(#224711b6d4)"><g clip-path="url(#b78a95e28c)"><path fill="#2d2e30" d="M 380.675781 337.8125 C 388.183594 350.910156 402.867188 361.367188 427.285156 358.769531 C 439.578125 357.460938 447.425781 353.097656 451.734375 347.238281 C 459.0625 337.25 456.152344 322.910156 447.621094 311.875 C 429.808594 316.808594 401.558594 319.410156 375.015625 305.507812 C 372.960938 313.976562 374.289062 326.816406 380.675781 337.8125 Z M 380.675781 337.8125 " fill-opacity="1" fill-rule="nonzero"/></g></g></g><g clip-path="url(#d4ef79b145)"><g clip-path="url(#483b29ce40)"><g clip-path="url(#8319b3f7a5)"><path fill="#2d2e30" d="M 427.5 360.78125 C 439.410156 359.515625 448.367188 355.238281 453.367188 348.429688 C 460.664062 338.484375 459.015625 323.378906 449.21875 310.625 C 448.972656 310.308594 448.65625 310.082031 448.269531 309.953125 C 447.886719 309.824219 447.5 309.8125 447.105469 309.914062 C 435.453125 313.191406 405.140625 319.007812 376.007812 303.710938 C 375.871094 303.636719 375.726562 303.582031 375.578125 303.542969 C 375.429688 303.503906 375.277344 303.480469 375.125 303.476562 C 374.96875 303.46875 374.816406 303.484375 374.664062 303.511719 C 374.515625 303.542969 374.367188 303.589844 374.226562 303.652344 C 374.085938 303.714844 373.957031 303.792969 373.832031 303.886719 C 373.710938 303.980469 373.597656 304.085938 373.5 304.203125 C 373.402344 304.324219 373.316406 304.449219 373.246094 304.589844 C 373.179688 304.726562 373.125 304.871094 373.089844 305.019531 C 372.53125 307.894531 372.238281 310.796875 372.207031 313.726562 C 372.179688 316.65625 372.414062 319.566406 372.910156 322.453125 C 373.410156 325.339844 374.164062 328.15625 375.175781 330.90625 C 376.1875 333.65625 377.4375 336.289062 378.929688 338.8125 C 384.429688 348.375 398.066406 363.917969 427.5 360.78125 Z M 446.816406 314.265625 C 453.53125 323.554688 457.027344 336.691406 450.105469 346.128906 C 445.800781 351.988281 437.828125 355.585938 427.070312 356.734375 C 415.402344 357.976562 394.113281 357.042969 382.4375 336.769531 C 381.207031 334.644531 380.152344 332.441406 379.277344 330.148438 C 378.398438 327.859375 377.707031 325.515625 377.203125 323.113281 C 376.699219 320.710938 376.390625 318.285156 376.277344 315.835938 C 376.160156 313.386719 376.242188 310.941406 376.515625 308.503906 C 405.101562 322.433594 434.179688 317.484375 446.816406 314.265625 Z M 446.816406 314.265625 " fill-opacity="1" fill-rule="nonzero"/></g></g></g><g clip-path="url(#1436f8a837)"><g clip-path="url(#c4828ad8f5)"><g clip-path="url(#2c8fa2448b)"><path fill="#fbfbf5" d="M 380.675781 337.8125 C 388.183594 350.910156 402.867188 361.367188 427.285156 358.769531 C 439.578125 357.460938 447.425781 353.097656 451.734375 347.238281 C 441.289062 337.371094 420.808594 331.988281 398 334.417969 C 392.125 335.027344 386.347656 336.160156 380.675781 337.8125 Z M 380.675781 337.8125 " fill-opacity="1" fill-rule="nonzero"/></g></g></g><g clip-path="url(#b8ab11f52d)"><g clip-path="url(#6d7da6976f)"><g clip-path="url(#b3add95d5a)"><path fill="#2d2e30" d="M 427.5 360.78125 C 439.410156 359.515625 448.367188 355.238281 453.367188 348.429688 L 454.417969 346.996094 L 453.125 345.765625 C 441.800781 335.09375 420.632812 329.972656 397.808594 332.402344 C 391.800781 333.027344 385.898438 334.183594 380.101562 335.875 L 377.632812 336.585938 L 378.929688 338.8125 C 384.429688 348.375 398.066406 363.917969 427.5 360.78125 Z M 448.945312 347.476562 C 444.429688 352.5 436.925781 355.703125 427.070312 356.753906 C 415.871094 357.945312 395.730469 357.113281 383.824219 339.046875 C 388.5625 337.816406 393.367188 336.945312 398.234375 336.429688 C 418.664062 334.257812 438.257812 338.566406 448.945312 347.476562 Z M 448.945312 347.476562 " fill-opacity="1" fill-rule="nonzero"/></g></g></g></svg>